<svg xmlns="http://www.w3.org/2000/svg" version="1.1" xmlns:xlink="http://www.w3.org/1999/xlink" xmlns:svgjs="http://svgjs.dev/svgjs" width="1000" height="1000" viewBox="0 0 1000 1000"><rect width="1000" height="1000" fill="#ffffff"></rect><g transform="matrix(0.7,0,0,0.7,149.84897959183667,150.19913061224486)"><svg viewBox="0 0 343 343" data-background-color="#ffffff" preserveAspectRatio="xMidYMid meet" height="999" width="1000" xmlns="http://www.w3.org/2000/svg" xmlns:xlink="http://www.w3.org/1999/xlink"><g id="tight-bounds" transform="matrix(1,0,0,1,0.0740000000000407,0.07400000000001228)"><svg viewBox="0 0 342.85155851775386 342.85155851775386" height="342.85155851775386" width="342.85155851775386"><g><svg></svg></g><g><svg viewBox="0 0 342.85155851775386 342.85155851775386" height="342.85155851775386" width="342.85155851775386"><g><path d="M0 171.426c0-94.676 76.75-171.426 171.426-171.426 94.676 0 171.426 76.75 171.426 171.426 0 94.676-76.75 171.426-171.426 171.426-94.676 0-171.426-76.75-171.426-171.426zM171.426 325.644c85.173 0 154.219-69.046 154.218-154.218 0-85.173-69.046-154.219-154.218-154.219-85.173 0-154.219 69.046-154.219 154.219 0 85.173 69.046 154.219 154.219 154.218z" data-fill-palette-color="tertiary" fill="#010c80" stroke="transparent"></path><ellipse rx="164.56874808852186" ry="164.56874808852186" cx="171.42577925887693" cy="171.42577925887693" fill="#010c80" stroke="transparent" stroke-width="0" fill-opacity="1" data-fill-palette-color="tertiary"></ellipse></g><g transform="matrix(1,0,0,1,64.84655864529837,76.02238484774523)"><svg viewBox="0 0 213.1584412271571 190.8067888222634" height="190.8067888222634" width="213.1584412271571"><g><svg viewBox="0 0 213.1584412271571 190.8067888222634" height="190.8067888222634" width="213.1584412271571"><g><svg viewBox="0 0 213.1584412271571 190.8067888222634" height="190.8067888222634" width="213.1584412271571"><g><svg viewBox="0 0 213.1584412271571 190.8067888222634" height="190.8067888222634" width="213.1584412271571"><g id="textblocktransform"><svg viewBox="0 0 213.1584412271571 190.8067888222634" height="190.8067888222634" width="213.1584412271571" id="textblock"><g><svg viewBox="0 0 213.1584412271571 190.8067888222634" height="190.8067888222634" width="213.1584412271571"><g transform="matrix(1,0,0,1,0,0)"><svg width="213.1584412271571" viewBox="2.3 -35 39.1 35" height="190.8067888222634" data-palette-color="#ffffff"><path d="M41.4 0L31.3 0 31.3-2.75 34.5-2.75 34.5-29.2 23.1-6.55 19.7-6.55 8.3-29.2 8.3-2.75 12.4-2.75 12.4 0 2.3 0 2.3-2.75 5.15-2.75 5.15-32.25 2.3-32.25 2.3-35 8.55-35 21.4-9.4 34.25-35 40.85-35 40.85-32.25 37.65-32.25 37.65-2.75 41.4-2.75 41.4 0Z" opacity="1" transform="matrix(1,0,0,1,0,0)" fill="#ffffff" class="wordmark-text-0" data-fill-palette-color="quaternary" id="text-0"></path></svg></g></svg></g></svg></g></svg></g></svg></g></svg></g></svg></g></svg></g><defs></defs></svg><rect width="342.85155851775386" height="342.85155851775386" fill="none" stroke="none" visibility="hidden"></rect></g></svg></g></svg>