<?xml version="1.0" standalone="no"?>
<!DOCTYPE svg PUBLIC "-//W3C//DTD SVG 20010904//EN"
 "http://www.w3.org/TR/2001/REC-SVG-20010904/DTD/svg10.dtd">
<svg version="1.0" xmlns="http://www.w3.org/2000/svg"
 width="500.000000pt" height="500.000000pt" viewBox="0 0 500.000000 500.000000"
 preserveAspectRatio="xMidYMid meet">
<metadata>
Created by potrace 1.16, written by Peter Selinger 2001-2019
</metadata>
<g transform="translate(0.000000,500.000000) scale(0.078125,-0.156250)"
fill="#000000" stroke="none">
<path d="M3090 2893 c-145 -15 -314 -62 -432 -118 -39 -19 -76 -32 -82 -28 -6
3 -8 3 -4 -2 4 -4 -18 -23 -50 -42 -31 -19 -82 -53 -112 -76 -30 -23 -59 -41
-63 -39 -5 1 -7 -1 -4 -5 2 -5 -17 -26 -42 -48 -66 -57 -178 -199 -242 -307
-29 -50 -54 -96 -55 -102 -5 -23 -49 -121 -57 -124 -4 -2 -5 -8 -1 -13 3 -5
-38 -9 -98 -9 -193 0 -289 -31 -378 -120 -59 -61 -89 -98 -82 -105 3 -3 -1 -5
-8 -5 -7 0 -11 -3 -7 -6 3 -3 -1 -25 -10 -47 -24 -66 -21 -209 6 -277 44 -112
130 -198 241 -241 43 -17 85 -22 197 -27 l142 -5 22 -61 c59 -159 168 -326
302 -460 164 -164 354 -278 571 -340 114 -34 120 -34 259 -48 111 -11 269 -4
381 17 51 10 219 67 284 96 70 31 223 122 247 145 8 9 15 13 15 9 0 -3 13 7
28 22 16 15 63 61 105 102 42 40 77 75 77 78 0 7 83 107 93 111 4 2 5 8 1 13
-3 5 0 9 7 9 7 0 10 3 6 6 -3 3 5 23 17 43 37 57 82 151 100 207 l17 52 137 5
c75 3 149 8 163 10 42 8 121 52 170 96 26 22 50 37 54 33 5 -4 5 -1 1 6 -5 8
-1 21 8 30 8 10 27 45 42 77 35 77 40 210 11 292 -26 75 -88 161 -144 199 -89
62 -143 76 -300 82 l-141 4 -22 62 c-24 68 -86 187 -131 254 -16 24 -26 48
-23 54 4 6 2 8 -3 5 -6 -4 -22 10 -36 31 -67 99 -233 243 -382 329 -72 43
-246 119 -292 129 -7 1 -40 9 -75 18 -125 30 -302 43 -428 29z m361 -63 c331
-63 633 -260 820 -533 57 -83 159 -278 159 -304 0 -21 -60 -16 -67 5 -96 272
-353 551 -624 676 -456 210 -978 131 -1350 -204 -117 -105 -237 -272 -298
-416 -27 -63 -32 -69 -61 -72 -29 -3 -31 -1 -25 20 18 63 121 253 178 328 199
263 467 432 787 498 128 27 347 28 481 2z m-91 -60 c430 -53 797 -329 974
-732 25 -57 25 -58 5 -58 -14 0 -24 10 -31 33 -60 170 -246 401 -422 522 -350
241 -798 277 -1176 94 -245 -118 -436 -307 -553 -546 -27 -57 -56 -103 -63
-103 -8 0 -14 5 -14 11 0 23 73 166 124 243 255 384 703 591 1156 536z m152
-187 c40 -36 4 -123 -51 -123 -33 0 -71 33 -71 61 0 23 18 61 34 71 20 13 69
8 88 -9z m-96 -213 c195 -50 373 -173 485 -337 34 -49 35 -53 12 -53 -10 0
-33 23 -52 50 -47 70 -157 171 -238 219 -260 153 -591 147 -840 -15 -68 -44
-204 -178 -227 -223 -10 -19 -24 -31 -37 -31 -20 0 -20 1 -2 31 94 161 296
307 493 358 106 28 298 28 406 1z m-1 -46 c147 -39 272 -118 385 -241 83 -91
89 -103 51 -103 -24 0 -46 16 -113 83 -96 97 -176 146 -303 190 -81 28 -102
31 -215 31 -104 1 -137 -3 -200 -22 -145 -46 -285 -136 -357 -232 -34 -43 -42
-49 -76 -49 l-38 -1 33 46 c50 69 158 167 237 214 74 44 182 85 266 100 70 13
258 4 330 -16z m-52 -80 c92 -21 183 -62 260 -118 67 -48 154 -132 145 -141
-2 -3 -254 -4 -559 -3 l-554 3 77 77 c129 128 291 195 476 197 46 1 115 -6
155 -15z m1431 -334 c83 -26 172 -104 213 -188 25 -51 28 -68 28 -157 0 -89
-3 -106 -28 -157 -42 -85 -130 -162 -215 -188 -66 -20 -83 -20 -1602 -18
l-1535 3 -60 32 c-77 40 -137 102 -172 178 -24 52 -28 72 -28 150 0 76 4 99
26 146 31 64 87 131 140 165 88 55 8 53 1650 53 1498 1 1518 1 1583 -19z
m-2707 -825 c64 -154 197 -335 324 -444 224 -190 470 -287 754 -298 212 -8
385 26 573 112 271 126 530 406 625 678 8 21 67 24 67 4 0 -23 -119 -247 -171
-323 -170 -246 -466 -440 -781 -510 -114 -26 -389 -28 -502 -4 -183 39 -337
103 -478 198 -106 72 -254 216 -327 318 -57 79 -147 250 -166 312 -6 21 -4 23
25 20 29 -3 35 -9 57 -63z m71 -39 c89 -179 236 -350 391 -456 221 -149 516
-227 770 -201 428 44 788 297 967 680 27 57 43 81 56 81 16 0 16 -5 -8 -57
-140 -320 -409 -570 -727 -677 -142 -47 -230 -61 -392 -60 -218 0 -348 30
-541 125 -240 119 -448 331 -559 572 -38 83 -42 97 -22 97 7 0 37 -47 65 -104z
m398 73 c27 -54 174 -193 249 -237 39 -23 113 -56 165 -74 91 -31 101 -33 245
-32 141 0 156 2 243 31 51 17 124 50 163 73 83 49 193 150 240 220 19 27 42
50 52 50 23 0 22 -4 -12 -53 -112 -163 -291 -287 -485 -337 -111 -28 -292 -28
-401 -1 -141 37 -316 138 -400 232 -43 49 -90 110 -104 137 -10 19 -9 22 8 22
13 0 27 -12 37 -31z m96 -9 c36 -52 146 -141 227 -183 116 -62 200 -82 336
-82 139 0 219 20 345 86 69 36 210 147 219 173 9 28 36 46 68 46 31 0 33 -2
23 -21 -21 -39 -155 -172 -213 -211 -252 -171 -579 -182 -838 -28 -79 47 -196
153 -240 217 l-30 43 38 0 c33 -1 42 -6 65 -40z m1108 33 c-1 -32 -171 -179
-193 -166 -5 3 -7 1 -4 -4 10 -16 -120 -70 -214 -89 -140 -28 -319 -5 -444 58
-66 34 -155 100 -148 111 3 5 1 7 -5 3 -12 -7 -84 73 -76 85 6 11 1084 12
1084 2z m-265 -530 c2 -22 9 -50 16 -61 16 -26 12 -31 -29 -35 -18 -2 -35 -7
-39 -10 -3 -4 -19 -7 -35 -7 -24 0 -28 3 -23 19 3 10 -1 38 -9 62 -12 33 -12
45 -3 51 19 12 48 9 46 -4 -3 -27 2 -38 16 -38 8 0 15 9 15 20 0 11 -4 20 -10
20 -20 0 -10 19 13 23 35 7 39 4 42 -40z"/>
<path d="M1787 1773 c-12 -11 -8 -23 8 -23 13 0 15 -25 15 -165 0 -140 -2
-165 -15 -165 -8 0 -15 -7 -15 -15 0 -12 16 -15 85 -15 69 0 85 3 85 15 0 8
-7 15 -15 15 -13 0 -15 25 -15 165 0 140 2 165 15 165 8 0 15 7 15 15 0 12
-15 15 -78 15 -43 0 -82 -3 -85 -7z"/>
<path d="M2094 1766 c-3 -7 -4 -35 -2 -62 2 -41 6 -49 22 -49 13 0 22 10 27
29 8 29 36 66 51 66 4 0 8 -76 8 -170 0 -146 -2 -169 -15 -164 -9 4 -15 0 -15
-10 0 -13 14 -16 84 -16 81 0 123 15 77 27 -20 5 -21 11 -21 169 0 90 4 164 8
164 20 0 44 -29 51 -60 5 -26 13 -36 29 -38 22 -3 23 -1 20 60 l-3 63 -158 3
c-128 2 -158 0 -163 -12z"/>
<path d="M2621 1758 c-4 -13 -25 -94 -47 -180 -30 -123 -42 -158 -56 -161 -40
-11 -16 -27 39 -27 54 0 55 1 39 18 -11 13 -14 28 -10 50 6 30 9 32 50 32 39
0 46 -3 54 -26 14 -37 12 -54 -5 -48 -9 4 -15 0 -15 -10 0 -13 14 -16 90 -16
75 0 88 2 84 15 -4 8 -12 15 -20 15 -7 0 -18 17 -23 38 -58 221 -81 310 -81
316 0 3 -20 6 -45 6 -38 0 -47 -4 -54 -22z"/>
<path d="M2990 1765 c0 -8 7 -15 15 -15 13 0 15 -25 15 -165 0 -140 -2 -165
-15 -165 -8 0 -15 -7 -15 -15 0 -13 22 -15 135 -15 l136 0 -3 62 c-2 38 -8 63
-15 66 -8 2 -13 -6 -13 -21 0 -37 -36 -77 -71 -77 l-29 0 0 165 c0 140 2 165
15 165 8 0 15 7 15 15 0 12 -16 15 -85 15 -69 0 -85 -3 -85 -15z"/>
<path d="M3407 1773 c-13 -12 -7 -23 13 -23 19 0 20 -7 20 -165 0 -134 -3
-165 -14 -165 -8 0 -16 -7 -20 -15 -4 -13 9 -15 85 -15 68 0 90 3 86 13 -2 6
-10 11 -16 10 -8 -2 -11 46 -11 167 0 144 2 170 15 170 8 0 15 7 15 15 0 12
-16 15 -83 15 -46 0 -87 -3 -90 -7z"/>
<path d="M3799 1600 c-36 -149 -47 -180 -61 -180 -10 0 -18 -7 -18 -15 0 -12
13 -15 55 -15 55 0 70 11 39 28 -12 7 -15 17 -9 41 6 29 9 31 50 31 47 0 49
-1 59 -42 5 -21 3 -28 -9 -28 -8 0 -15 -7 -15 -15 0 -12 16 -15 85 -15 69 0
85 3 85 15 0 8 -6 15 -14 15 -16 0 -25 28 -77 233 l-33 127 -46 0 -47 0 -44
-180z"/>
<path d="M4207 1773 c-13 -12 -7 -23 13 -23 19 0 20 -7 20 -165 0 -134 -3
-165 -14 -165 -8 0 -16 -7 -20 -15 -4 -12 5 -15 49 -15 42 0 55 3 55 15 0 8
-7 15 -15 15 -12 0 -15 20 -15 117 0 72 4 113 9 108 31 -32 171 -229 171 -241
0 -8 9 -14 20 -14 19 0 20 7 20 180 0 172 1 180 20 180 13 0 18 5 14 15 -4 11
-21 15 -55 15 -37 0 -49 -4 -49 -15 0 -8 7 -15 15 -15 12 0 15 -15 15 -77 0
-42 -2 -74 -4 -72 -2 2 -27 38 -56 79 -29 41 -59 81 -68 88 -16 12 -114 17
-125 5z"/>
</g>
</svg>
